<?xml version="1.0" encoding="UTF-8" standalone="no"?>
<!DOCTYPE svg PUBLIC "-//W3C//DTD SVG 1.1//EN"
 "http://www.w3.org/Graphics/SVG/1.1/DTD/svg11.dtd">
<!-- Generated by graphviz version 2.40.1 (20161225.0304)
 -->
<!-- Title: dependencies Pages: 1 -->
<svg width="4451pt" height="284pt"
 viewBox="0.00 0.00 4451.00 284.00" xmlns="http://www.w3.org/2000/svg" xmlns:xlink="http://www.w3.org/1999/xlink">
<g id="graph0" class="graph" transform="scale(1 1) rotate(0) translate(4 280)">
<title>dependencies</title>
<polygon fill="#ffffff" stroke="transparent" points="-4,4 -4,-280 4447,-280 4447,4 -4,4"/>
<text text-anchor="start" x="2200.5091" y="-42.4" font-family="sans-serif" font-weight="bold" font-size="14.00" fill="#000000">Legend</text>
<polygon fill="#ffffb3" stroke="transparent" points="1987.5,-10 1987.5,-30 2007.5,-30 2007.5,-10 1987.5,-10"/>
<text text-anchor="start" x="2011.129" y="-15.4" font-family="sans-serif" font-size="14.00" fill="#000000"> &#160;Declarations</text>
<polygon fill="#8dd3c7" stroke="transparent" points="2100.5,-10 2100.5,-30 2120.5,-30 2120.5,-10 2100.5,-10"/>
<text text-anchor="start" x="2124.2251" y="-15.4" font-family="sans-serif" font-size="14.00" fill="#000000"> &#160;Module</text>
<polygon fill="#80b1d3" stroke="transparent" points="2186.5,-10 2186.5,-30 2206.5,-30 2206.5,-10 2186.5,-10"/>
<text text-anchor="start" x="2210.2812" y="-15.4" font-family="sans-serif" font-size="14.00" fill="#000000"> &#160;Bootstrap</text>
<polygon fill="#fdb462" stroke="transparent" points="2283.5,-10 2283.5,-30 2303.5,-30 2303.5,-10 2283.5,-10"/>
<text text-anchor="start" x="2307.1732" y="-15.4" font-family="sans-serif" font-size="14.00" fill="#000000"> &#160;Providers</text>
<polygon fill="#fb8072" stroke="transparent" points="2379.5,-10 2379.5,-30 2399.5,-30 2399.5,-10 2379.5,-10"/>
<text text-anchor="start" x="2403.2258" y="-15.4" font-family="sans-serif" font-size="14.00" fill="#000000"> &#160;Exports</text>
<g id="clust1" class="cluster">
<title>cluster_SharedModule</title>
<polygon fill="none" stroke="#000000" stroke-dasharray="1,5" points="8,-70 8,-268 4435,-268 4435,-70 8,-70"/>
</g>
<g id="clust2" class="cluster">
<title>cluster_SharedModule_declarations</title>
<polygon fill="none" stroke="#000000" points="862,-78 862,-130 4427,-130 4427,-78 862,-78"/>
</g>
<g id="clust28" class="cluster">
<title>cluster_SharedModule_exports</title>
<polygon fill="none" stroke="#000000" points="569,-208 569,-260 3963,-260 3963,-208 569,-208"/>
</g>
<g id="clust30" class="cluster">
<title>cluster_SharedModule_providers</title>
<polygon fill="none" stroke="#000000" points="16,-78 16,-130 854,-130 854,-78 16,-78"/>
</g>
<!-- CapitalizePipe -->
<g id="node1" class="node">
<title>CapitalizePipe</title>
<polygon fill="#ffffb3" stroke="#000000" points="4418.6458,-122 4321.3542,-122 4321.3542,-86 4418.6458,-86 4418.6458,-122"/>
<text text-anchor="middle" x="4370" y="-99.8" font-family="Times,serif" font-size="14.00" fill="#000000">CapitalizePipe</text>
</g>
<!-- SharedModule -->
<g id="node25" class="node">
<title>SharedModule</title>
<polygon fill="#8dd3c7" stroke="#000000" points="2292.4231,-187 2289.4231,-191 2268.4231,-191 2265.4231,-187 2193.5769,-187 2193.5769,-151 2292.4231,-151 2292.4231,-187"/>
<text text-anchor="middle" x="2243" y="-164.8" font-family="Times,serif" font-size="14.00" fill="#000000">SharedModule</text>
</g>
<!-- CapitalizePipe&#45;&gt;SharedModule -->
<g id="edge1" class="edge">
<title>CapitalizePipe&#45;&gt;SharedModule</title>
<path fill="none" stroke="#000000" d="M4370,-122.2228C4370,-142.3652 4370,-172 4370,-172 4370,-172 2302.4458,-172 2302.4458,-172"/>
<polygon fill="#000000" stroke="#000000" points="2302.4459,-168.5001 2292.4458,-172 2302.4458,-175.5001 2302.4459,-168.5001"/>
</g>
<!-- KeyValuePipe -->
<g id="node2" class="node">
<title>KeyValuePipe</title>
<polygon fill="#ffffb3" stroke="#000000" points="4302.6361,-122 4205.3639,-122 4205.3639,-86 4302.6361,-86 4302.6361,-122"/>
<text text-anchor="middle" x="4254" y="-99.8" font-family="Times,serif" font-size="14.00" fill="#000000">KeyValuePipe</text>
</g>
<!-- KeyValuePipe&#45;&gt;SharedModule -->
<g id="edge2" class="edge">
<title>KeyValuePipe&#45;&gt;SharedModule</title>
<path fill="none" stroke="#000000" d="M4254,-122.0348C4254,-141.5762 4254,-170 4254,-170 4254,-170 2302.7104,-170 2302.7104,-170"/>
<polygon fill="#000000" stroke="#000000" points="2302.7104,-166.5001 2292.7104,-170 2302.7104,-173.5001 2302.7104,-166.5001"/>
</g>
<!-- SearchfilterPipe -->
<g id="node3" class="node">
<title>SearchfilterPipe</title>
<polygon fill="#ffffb3" stroke="#000000" points="4187.1826,-122 4080.8174,-122 4080.8174,-86 4187.1826,-86 4187.1826,-122"/>
<text text-anchor="middle" x="4134" y="-99.8" font-family="Times,serif" font-size="14.00" fill="#000000">SearchfilterPipe</text>
</g>
<!-- SearchfilterPipe&#45;&gt;SharedModule -->
<g id="edge3" class="edge">
<title>SearchfilterPipe&#45;&gt;SharedModule</title>
<path fill="none" stroke="#000000" d="M4134,-122.1061C4134,-141.3391 4134,-169 4134,-169 4134,-169 2302.6077,-169 2302.6077,-169"/>
<polygon fill="#000000" stroke="#000000" points="2302.6077,-165.5001 2292.6077,-169 2302.6076,-172.5001 2302.6077,-165.5001"/>
</g>
<!-- TriStateButtonComponent -->
<g id="node4" class="node">
<title>TriStateButtonComponent</title>
<polygon fill="#ffffb3" stroke="#000000" points="4063.0476,-122 3898.9524,-122 3898.9524,-86 4063.0476,-86 4063.0476,-122"/>
<text text-anchor="middle" x="3981" y="-99.8" font-family="Times,serif" font-size="14.00" fill="#000000">TriStateButtonComponent</text>
</g>
<!-- TriStateButtonComponent&#45;&gt;SharedModule -->
<g id="edge4" class="edge">
<title>TriStateButtonComponent&#45;&gt;SharedModule</title>
<path fill="none" stroke="#000000" d="M3926.8452,-122.2222C3926.8452,-140.8285 3926.8452,-167 3926.8452,-167 3926.8452,-167 2302.4824,-167 2302.4824,-167"/>
<polygon fill="#000000" stroke="#000000" points="2302.4824,-163.5001 2292.4824,-167 2302.4823,-170.5001 2302.4824,-163.5001"/>
</g>
<!-- TriStateCheckboxComponent -->
<g id="node5" class="node">
<title>TriStateCheckboxComponent</title>
<polygon fill="#ffffb3" stroke="#000000" points="3880.6951,-122 3697.3049,-122 3697.3049,-86 3880.6951,-86 3880.6951,-122"/>
<text text-anchor="middle" x="3789" y="-99.8" font-family="Times,serif" font-size="14.00" fill="#000000">TriStateCheckboxComponent</text>
</g>
<!-- TriStateCheckboxComponent&#45;&gt;SharedModule -->
<g id="edge5" class="edge">
<title>TriStateCheckboxComponent&#45;&gt;SharedModule</title>
<path fill="none" stroke="#000000" d="M3745.0668,-122.2667C3745.0668,-140.5552 3745.0668,-166 3745.0668,-166 3745.0668,-166 2302.5486,-166 2302.5486,-166"/>
<polygon fill="#000000" stroke="#000000" points="2302.5487,-162.5001 2292.5486,-166 2302.5486,-169.5001 2302.5487,-162.5001"/>
</g>
<!-- MasterCheckboxComponent -->
<g id="node6" class="node">
<title>MasterCheckboxComponent</title>
<polygon fill="#ffffb3" stroke="#000000" points="3679.4678,-122 3502.5322,-122 3502.5322,-86 3679.4678,-86 3679.4678,-122"/>
<text text-anchor="middle" x="3591" y="-99.8" font-family="Times,serif" font-size="14.00" fill="#000000">MasterCheckboxComponent</text>
</g>
<!-- MasterCheckboxComponent&#45;&gt;SharedModule -->
<g id="edge6" class="edge">
<title>MasterCheckboxComponent&#45;&gt;SharedModule</title>
<path fill="none" stroke="#000000" d="M3506.3698,-122.002C3506.3698,-139.6754 3506.3698,-164 3506.3698,-164 3506.3698,-164 2302.5256,-164 2302.5256,-164"/>
<polygon fill="#000000" stroke="#000000" points="2302.5256,-160.5001 2292.5256,-164 2302.5256,-167.5001 2302.5256,-160.5001"/>
</g>
<!-- SortComponent -->
<g id="node7" class="node">
<title>SortComponent</title>
<polygon fill="#ffffb3" stroke="#000000" points="3484.1667,-122 3379.8333,-122 3379.8333,-86 3484.1667,-86 3484.1667,-122"/>
<text text-anchor="middle" x="3432" y="-99.8" font-family="Times,serif" font-size="14.00" fill="#000000">SortComponent</text>
</g>
<!-- SortComponent&#45;&gt;SharedModule -->
<g id="edge7" class="edge">
<title>SortComponent&#45;&gt;SharedModule</title>
<path fill="none" stroke="#000000" d="M3432,-122.0225C3432,-139.3734 3432,-163 3432,-163 3432,-163 2302.5761,-163 2302.5761,-163"/>
<polygon fill="#000000" stroke="#000000" points="2302.5761,-159.5001 2292.5761,-163 2302.576,-166.5001 2302.5761,-159.5001"/>
</g>
<!-- ClickOutsideDirective -->
<g id="node8" class="node">
<title>ClickOutsideDirective</title>
<polygon fill="#ffffb3" stroke="#000000" points="3361.9622,-122 3220.0378,-122 3220.0378,-86 3361.9622,-86 3361.9622,-122"/>
<text text-anchor="middle" x="3291" y="-99.8" font-family="Times,serif" font-size="14.00" fill="#000000">ClickOutsideDirective</text>
</g>
<!-- ClickOutsideDirective&#45;&gt;SharedModule -->
<g id="edge8" class="edge">
<title>ClickOutsideDirective&#45;&gt;SharedModule</title>
<path fill="none" stroke="#000000" d="M3280.0682,-122.0336C3280.0682,-139.0597 3280.0682,-162 3280.0682,-162 3280.0682,-162 2302.3223,-162 2302.3223,-162"/>
<polygon fill="#000000" stroke="#000000" points="2302.3223,-158.5001 2292.3223,-162 2302.3222,-165.5001 2302.3223,-158.5001"/>
</g>
<!-- AutoResizeDirective -->
<g id="node9" class="node">
<title>AutoResizeDirective</title>
<polygon fill="#ffffb3" stroke="#000000" points="3201.8962,-122 3068.1038,-122 3068.1038,-86 3201.8962,-86 3201.8962,-122"/>
<text text-anchor="middle" x="3135" y="-99.8" font-family="Times,serif" font-size="14.00" fill="#000000">AutoResizeDirective</text>
</g>
<!-- AutoResizeDirective&#45;&gt;SharedModule -->
<g id="edge9" class="edge">
<title>AutoResizeDirective&#45;&gt;SharedModule</title>
<path fill="none" stroke="#000000" d="M3108.1441,-122.027C3108.1441,-138.3976 3108.1441,-160 3108.1441,-160 3108.1441,-160 2302.3065,-160 2302.3065,-160"/>
<polygon fill="#000000" stroke="#000000" points="2302.3066,-156.5001 2292.3065,-160 2302.3065,-163.5001 2302.3066,-156.5001"/>
</g>
<!-- PropertyTableComponent -->
<g id="node10" class="node">
<title>PropertyTableComponent</title>
<polygon fill="#ffffb3" stroke="#000000" points="3050.9143,-122 2889.0857,-122 2889.0857,-86 3050.9143,-86 3050.9143,-122"/>
<text text-anchor="middle" x="2970" y="-99.8" font-family="Times,serif" font-size="14.00" fill="#000000">PropertyTableComponent</text>
</g>
<!-- PropertyTableComponent&#45;&gt;SharedModule -->
<g id="edge10" class="edge">
<title>PropertyTableComponent&#45;&gt;SharedModule</title>
<path fill="none" stroke="#000000" d="M2909.5672,-122.0091C2909.5672,-138.0494 2909.5672,-159 2909.5672,-159 2909.5672,-159 2302.285,-159 2302.285,-159"/>
<polygon fill="#000000" stroke="#000000" points="2302.285,-155.5001 2292.285,-159 2302.2849,-162.5001 2302.285,-155.5001"/>
</g>
<!-- TabsComponent -->
<g id="node11" class="node">
<title>TabsComponent</title>
<polygon fill="#ffffb3" stroke="#000000" points="2871.0452,-122 2762.9548,-122 2762.9548,-86 2871.0452,-86 2871.0452,-122"/>
<text text-anchor="middle" x="2817" y="-99.8" font-family="Times,serif" font-size="14.00" fill="#000000">TabsComponent</text>
</g>
<!-- TabsComponent&#45;&gt;SharedModule -->
<g id="edge11" class="edge">
<title>TabsComponent&#45;&gt;SharedModule</title>
<path fill="none" stroke="#000000" d="M2782.5377,-122.2396C2782.5377,-137.5706 2782.5377,-157 2782.5377,-157 2782.5377,-157 2302.3107,-157 2302.3107,-157"/>
<polygon fill="#000000" stroke="#000000" points="2302.3107,-153.5001 2292.3107,-157 2302.3106,-160.5001 2302.3107,-153.5001"/>
</g>
<!-- TabComponent -->
<g id="node12" class="node">
<title>TabComponent</title>
<polygon fill="#ffffb3" stroke="#000000" points="2744.5996,-122 2641.4004,-122 2641.4004,-86 2744.5996,-86 2744.5996,-122"/>
<text text-anchor="middle" x="2693" y="-99.8" font-family="Times,serif" font-size="14.00" fill="#000000">TabComponent</text>
</g>
<!-- TabComponent&#45;&gt;SharedModule -->
<g id="edge12" class="edge">
<title>TabComponent&#45;&gt;SharedModule</title>
<path fill="none" stroke="#000000" d="M2693,-122.1871C2693,-137.1824 2693,-156 2693,-156 2693,-156 2302.4451,-156 2302.4451,-156"/>
<polygon fill="#000000" stroke="#000000" points="2302.4452,-152.5001 2292.4451,-156 2302.4451,-159.5001 2302.4452,-152.5001"/>
</g>
<!-- DataflowDateTimePipe -->
<g id="node13" class="node">
<title>DataflowDateTimePipe</title>
<polygon fill="#ffffb3" stroke="#000000" points="2623.4468,-122 2474.5532,-122 2474.5532,-86 2623.4468,-86 2623.4468,-122"/>
<text text-anchor="middle" x="2549" y="-99.8" font-family="Times,serif" font-size="14.00" fill="#000000">DataflowDateTimePipe</text>
</g>
<!-- DataflowDateTimePipe&#45;&gt;SharedModule -->
<g id="edge13" class="edge">
<title>DataflowDateTimePipe&#45;&gt;SharedModule</title>
<path fill="none" stroke="#000000" d="M2536.2751,-122.0511C2536.2751,-136.373 2536.2751,-154 2536.2751,-154 2536.2751,-154 2302.4185,-154 2302.4185,-154"/>
<polygon fill="#000000" stroke="#000000" points="2302.4185,-150.5001 2292.4185,-154 2302.4184,-157.5001 2302.4185,-150.5001"/>
</g>
<!-- DataflowDurationPipe -->
<g id="node14" class="node">
<title>DataflowDurationPipe</title>
<polygon fill="#ffffb3" stroke="#000000" points="2456.2352,-122 2313.7648,-122 2313.7648,-86 2456.2352,-86 2456.2352,-122"/>
<text text-anchor="middle" x="2385" y="-99.8" font-family="Times,serif" font-size="14.00" fill="#000000">DataflowDurationPipe</text>
</g>
<!-- DataflowDurationPipe&#45;&gt;SharedModule -->
<g id="edge14" class="edge">
<title>DataflowDurationPipe&#45;&gt;SharedModule</title>
<path fill="none" stroke="#000000" d="M2363.0447,-122.2458C2363.0447,-136.1772 2363.0447,-153 2363.0447,-153 2363.0447,-153 2302.5198,-153 2302.5198,-153"/>
<polygon fill="#000000" stroke="#000000" points="2302.5199,-149.5001 2292.5198,-153 2302.5198,-156.5001 2302.5199,-149.5001"/>
</g>
<!-- MapValuesPipe -->
<g id="node15" class="node">
<title>MapValuesPipe</title>
<polygon fill="#ffffb3" stroke="#000000" points="2295.9188,-122 2190.0812,-122 2190.0812,-86 2295.9188,-86 2295.9188,-122"/>
<text text-anchor="middle" x="2243" y="-99.8" font-family="Times,serif" font-size="14.00" fill="#000000">MapValuesPipe</text>
</g>
<!-- MapValuesPipe&#45;&gt;SharedModule -->
<g id="edge15" class="edge">
<title>MapValuesPipe&#45;&gt;SharedModule</title>
<path fill="none" stroke="#000000" d="M2243,-122.1061C2243,-122.1061 2243,-140.991 2243,-140.991"/>
<polygon fill="#000000" stroke="#000000" points="2239.5001,-140.9909 2243,-150.991 2246.5001,-140.991 2239.5001,-140.9909"/>
</g>
<!-- DecorationComponent -->
<g id="node16" class="node">
<title>DecorationComponent</title>
<polygon fill="#ffffb3" stroke="#000000" points="2172.5254,-122 2029.4746,-122 2029.4746,-86 2172.5254,-86 2172.5254,-122"/>
<text text-anchor="middle" x="2101" y="-99.8" font-family="Times,serif" font-size="14.00" fill="#000000">DecorationComponent</text>
</g>
<!-- DecorationComponent&#45;&gt;SharedModule -->
<g id="edge16" class="edge">
<title>DecorationComponent&#45;&gt;SharedModule</title>
<path fill="none" stroke="#000000" d="M2127.625,-122.2458C2127.625,-136.1772 2127.625,-153 2127.625,-153 2127.625,-153 2183.736,-153 2183.736,-153"/>
<polygon fill="#000000" stroke="#000000" points="2183.736,-156.5001 2193.736,-153 2183.7359,-149.5001 2183.736,-156.5001"/>
</g>
<!-- HandleComponent -->
<g id="node17" class="node">
<title>HandleComponent</title>
<polygon fill="#ffffb3" stroke="#000000" points="2010.759,-122 1889.241,-122 1889.241,-86 2010.759,-86 2010.759,-122"/>
<text text-anchor="middle" x="1950" y="-99.8" font-family="Times,serif" font-size="14.00" fill="#000000">HandleComponent</text>
</g>
<!-- HandleComponent&#45;&gt;SharedModule -->
<g id="edge17" class="edge">
<title>HandleComponent&#45;&gt;SharedModule</title>
<path fill="none" stroke="#000000" d="M1950,-122.0511C1950,-136.373 1950,-154 1950,-154 1950,-154 2183.6279,-154 2183.6279,-154"/>
<polygon fill="#000000" stroke="#000000" points="2183.6279,-157.5001 2193.6279,-154 2183.6278,-150.5001 2183.6279,-157.5001"/>
</g>
<!-- PropertiesDialogComponent -->
<g id="node18" class="node">
<title>PropertiesDialogComponent</title>
<polygon fill="#ffffb3" stroke="#000000" points="1871.1937,-122 1694.8063,-122 1694.8063,-86 1871.1937,-86 1871.1937,-122"/>
<text text-anchor="middle" x="1783" y="-99.8" font-family="Times,serif" font-size="14.00" fill="#000000">PropertiesDialogComponent</text>
</g>
<!-- PropertiesDialogComponent&#45;&gt;SharedModule -->
<g id="edge18" class="edge">
<title>PropertiesDialogComponent&#45;&gt;SharedModule</title>
<path fill="none" stroke="#000000" d="M1793.9723,-122.1871C1793.9723,-137.1824 1793.9723,-156 1793.9723,-156 1793.9723,-156 2183.6617,-156 2183.6617,-156"/>
<polygon fill="#000000" stroke="#000000" points="2183.6618,-159.5001 2193.6617,-156 2183.6617,-152.5001 2183.6618,-159.5001"/>
</g>
<!-- GraphViewComponent -->
<g id="node19" class="node">
<title>GraphViewComponent</title>
<polygon fill="#ffffb3" stroke="#000000" points="1677.1331,-122 1530.8669,-122 1530.8669,-86 1677.1331,-86 1677.1331,-122"/>
<text text-anchor="middle" x="1604" y="-99.8" font-family="Times,serif" font-size="14.00" fill="#000000">GraphViewComponent</text>
</g>
<!-- GraphViewComponent&#45;&gt;SharedModule -->
<g id="edge19" class="edge">
<title>GraphViewComponent&#45;&gt;SharedModule</title>
<path fill="none" stroke="#000000" d="M1645.8434,-122.2396C1645.8434,-137.5706 1645.8434,-157 1645.8434,-157 1645.8434,-157 2183.6241,-157 2183.6241,-157"/>
<polygon fill="#000000" stroke="#000000" points="2183.6242,-160.5001 2193.6241,-157 2183.6241,-153.5001 2183.6242,-160.5001"/>
</g>
<!-- StreamDslComponent -->
<g id="node20" class="node">
<title>StreamDslComponent</title>
<polygon fill="#ffffb3" stroke="#000000" points="1512.4285,-122 1371.5715,-122 1371.5715,-86 1512.4285,-86 1512.4285,-122"/>
<text text-anchor="middle" x="1442" y="-99.8" font-family="Times,serif" font-size="14.00" fill="#000000">StreamDslComponent</text>
</g>
<!-- StreamDslComponent&#45;&gt;SharedModule -->
<g id="edge20" class="edge">
<title>StreamDslComponent&#45;&gt;SharedModule</title>
<path fill="none" stroke="#000000" d="M1464.6836,-122.0091C1464.6836,-138.0494 1464.6836,-159 1464.6836,-159 1464.6836,-159 2183.7224,-159 2183.7224,-159"/>
<polygon fill="#000000" stroke="#000000" points="2183.7224,-162.5001 2193.7224,-159 2183.7223,-155.5001 2183.7224,-162.5001"/>
</g>
<!-- TruncatePipe -->
<g id="node21" class="node">
<title>TruncatePipe</title>
<polygon fill="#ffffb3" stroke="#000000" points="1353.1361,-122 1262.8639,-122 1262.8639,-86 1353.1361,-86 1353.1361,-122"/>
<text text-anchor="middle" x="1308" y="-99.8" font-family="Times,serif" font-size="14.00" fill="#000000">TruncatePipe</text>
</g>
<!-- TruncatePipe&#45;&gt;SharedModule -->
<g id="edge21" class="edge">
<title>TruncatePipe&#45;&gt;SharedModule</title>
<path fill="none" stroke="#000000" d="M1308,-122.027C1308,-138.3976 1308,-160 1308,-160 1308,-160 2183.7191,-160 2183.7191,-160"/>
<polygon fill="#000000" stroke="#000000" points="2183.7192,-163.5001 2193.7191,-160 2183.7191,-156.5001 2183.7192,-163.5001"/>
</g>
<!-- OrderByPipe -->
<g id="node22" class="node">
<title>OrderByPipe</title>
<polygon fill="#ffffb3" stroke="#000000" points="1244.8669,-122 1155.1331,-122 1155.1331,-86 1244.8669,-86 1244.8669,-122"/>
<text text-anchor="middle" x="1200" y="-99.8" font-family="Times,serif" font-size="14.00" fill="#000000">OrderByPipe</text>
</g>
<!-- OrderByPipe&#45;&gt;SharedModule -->
<g id="edge22" class="edge">
<title>OrderByPipe&#45;&gt;SharedModule</title>
<path fill="none" stroke="#000000" d="M1238.0006,-122.0336C1238.0006,-139.0597 1238.0006,-162 1238.0006,-162 1238.0006,-162 2183.5047,-162 2183.5047,-162"/>
<polygon fill="#000000" stroke="#000000" points="2183.5048,-165.5001 2193.5047,-162 2183.5047,-158.5001 2183.5048,-165.5001"/>
</g>
<!-- ConfirmComponent -->
<g id="node23" class="node">
<title>ConfirmComponent</title>
<polygon fill="#ffffb3" stroke="#000000" points="1137.2716,-122 1008.7284,-122 1008.7284,-86 1137.2716,-86 1137.2716,-122"/>
<text text-anchor="middle" x="1073" y="-99.8" font-family="Times,serif" font-size="14.00" fill="#000000">ConfirmComponent</text>
</g>
<!-- ConfirmComponent&#45;&gt;SharedModule -->
<g id="edge23" class="edge">
<title>ConfirmComponent&#45;&gt;SharedModule</title>
<path fill="none" stroke="#000000" d="M1127.8079,-122.0225C1127.8079,-139.3734 1127.8079,-163 1127.8079,-163 1127.8079,-163 2183.6426,-163 2183.6426,-163"/>
<polygon fill="#000000" stroke="#000000" points="2183.6427,-166.5001 2193.6426,-163 2183.6426,-159.5001 2183.6427,-166.5001"/>
</g>
<!-- LoaderComponent -->
<g id="node24" class="node">
<title>LoaderComponent</title>
<polygon fill="#ffffb3" stroke="#000000" points="990.4748,-122 869.5252,-122 869.5252,-86 990.4748,-86 990.4748,-122"/>
<text text-anchor="middle" x="930" y="-99.8" font-family="Times,serif" font-size="14.00" fill="#000000">LoaderComponent</text>
</g>
<!-- LoaderComponent&#45;&gt;SharedModule -->
<g id="edge24" class="edge">
<title>LoaderComponent&#45;&gt;SharedModule</title>
<path fill="none" stroke="#000000" d="M932.6759,-122.002C932.6759,-139.6754 932.6759,-164 932.6759,-164 932.6759,-164 2183.6302,-164 2183.6302,-164"/>
<polygon fill="#000000" stroke="#000000" points="2183.6302,-167.5001 2193.6302,-164 2183.6302,-160.5001 2183.6302,-167.5001"/>
</g>
<!-- StreamDslComponent  -->
<g id="node26" class="node">
<title>StreamDslComponent </title>
<polygon fill="#fb8072" stroke="#000000" points="3954.9278,-252 3811.0722,-252 3811.0722,-216 3954.9278,-216 3954.9278,-252"/>
<text text-anchor="middle" x="3883" y="-229.8" font-family="Times,serif" font-size="14.00" fill="#000000">StreamDslComponent </text>
</g>
<!-- SharedModule&#45;&gt;StreamDslComponent  -->
<g id="edge25" class="edge">
<title>SharedModule&#45;&gt;StreamDslComponent </title>
<path fill="none" stroke="#000000" stroke-dasharray="5,2" d="M2292.2846,-173C2561.8644,-173 3845.8168,-173 3845.8168,-173 3845.8168,-173 3845.8168,-205.698 3845.8168,-205.698"/>
<polygon fill="#000000" stroke="#000000" points="3842.3169,-205.698 3845.8168,-215.698 3849.3169,-205.698 3842.3169,-205.698"/>
</g>
<!-- ClickOutsideDirective  -->
<g id="node27" class="node">
<title>ClickOutsideDirective </title>
<polygon fill="#fb8072" stroke="#000000" points="3792.9629,-252 3647.0371,-252 3647.0371,-216 3792.9629,-216 3792.9629,-252"/>
<text text-anchor="middle" x="3720" y="-229.8" font-family="Times,serif" font-size="14.00" fill="#000000">ClickOutsideDirective </text>
</g>
<!-- SharedModule&#45;&gt;ClickOutsideDirective  -->
<g id="edge26" class="edge">
<title>SharedModule&#45;&gt;ClickOutsideDirective </title>
<path fill="none" stroke="#000000" stroke-dasharray="5,2" d="M2292.3051,-175C2542.8839,-175 3663.3764,-175 3663.3764,-175 3663.3764,-175 3663.3764,-205.9775 3663.3764,-205.9775"/>
<polygon fill="#000000" stroke="#000000" points="3659.8765,-205.9774 3663.3764,-215.9775 3666.8765,-205.9775 3659.8765,-205.9774"/>
</g>
<!-- CapitalizePipe  -->
<g id="node28" class="node">
<title>CapitalizePipe </title>
<polygon fill="#fb8072" stroke="#000000" points="3629.6453,-252 3528.3547,-252 3528.3547,-216 3629.6453,-216 3629.6453,-252"/>
<text text-anchor="middle" x="3579" y="-229.8" font-family="Times,serif" font-size="14.00" fill="#000000">CapitalizePipe </text>
</g>
<!-- SharedModule&#45;&gt;CapitalizePipe  -->
<g id="edge27" class="edge">
<title>SharedModule&#45;&gt;CapitalizePipe </title>
<path fill="none" stroke="#000000" stroke-dasharray="5,2" d="M2292.5332,-176C2534.3196,-176 3579,-176 3579,-176 3579,-176 3579,-205.9664 3579,-205.9664"/>
<polygon fill="#000000" stroke="#000000" points="3575.5001,-205.9663 3579,-215.9664 3582.5001,-205.9664 3575.5001,-205.9663"/>
</g>
<!-- DataflowDateTimePipe  -->
<g id="node29" class="node">
<title>DataflowDateTimePipe </title>
<polygon fill="#fb8072" stroke="#000000" points="3510.4475,-252 3357.5525,-252 3357.5525,-216 3510.4475,-216 3510.4475,-252"/>
<text text-anchor="middle" x="3434" y="-229.8" font-family="Times,serif" font-size="14.00" fill="#000000">DataflowDateTimePipe </text>
</g>
<!-- SharedModule&#45;&gt;DataflowDateTimePipe  -->
<g id="edge28" class="edge">
<title>SharedModule&#45;&gt;DataflowDateTimePipe </title>
<path fill="none" stroke="#000000" stroke-dasharray="5,2" d="M2292.5508,-177C2510.2225,-177 3370.824,-177 3370.824,-177 3370.824,-177 3370.824,-205.9648 3370.824,-205.9648"/>
<polygon fill="#000000" stroke="#000000" points="3367.3241,-205.9648 3370.824,-215.9648 3374.3241,-205.9649 3367.3241,-205.9648"/>
</g>
<!-- DataflowDurationPipe  -->
<g id="node30" class="node">
<title>DataflowDurationPipe </title>
<polygon fill="#fb8072" stroke="#000000" points="3340.2352,-252 3193.7648,-252 3193.7648,-216 3340.2352,-216 3340.2352,-252"/>
<text text-anchor="middle" x="3267" y="-229.8" font-family="Times,serif" font-size="14.00" fill="#000000">DataflowDurationPipe </text>
</g>
<!-- SharedModule&#45;&gt;DataflowDurationPipe  -->
<g id="edge29" class="edge">
<title>SharedModule&#45;&gt;DataflowDurationPipe </title>
<path fill="none" stroke="#000000" stroke-dasharray="5,2" d="M2292.3231,-179C2487.8374,-179 3197.7901,-179 3197.7901,-179 3197.7901,-179 3197.7901,-205.9909 3197.7901,-205.9909"/>
<polygon fill="#000000" stroke="#000000" points="3194.2902,-205.9909 3197.7901,-215.9909 3201.2902,-205.991 3194.2902,-205.9909"/>
</g>
<!-- KeyValuePipe  -->
<g id="node31" class="node">
<title>KeyValuePipe </title>
<polygon fill="#fb8072" stroke="#000000" points="3175.6355,-252 3074.3645,-252 3074.3645,-216 3175.6355,-216 3175.6355,-252"/>
<text text-anchor="middle" x="3125" y="-229.8" font-family="Times,serif" font-size="14.00" fill="#000000">KeyValuePipe </text>
</g>
<!-- SharedModule&#45;&gt;KeyValuePipe  -->
<g id="edge30" class="edge">
<title>SharedModule&#45;&gt;KeyValuePipe </title>
<path fill="none" stroke="#000000" stroke-dasharray="5,2" d="M2292.2853,-180C2480.2891,-180 3141.8559,-180 3141.8559,-180 3141.8559,-180 3141.8559,-205.7181 3141.8559,-205.7181"/>
<polygon fill="#000000" stroke="#000000" points="3138.356,-205.718 3141.8559,-215.7181 3145.356,-205.7181 3138.356,-205.718"/>
</g>
<!-- MapValuesPipe  -->
<g id="node32" class="node">
<title>MapValuesPipe </title>
<polygon fill="#fb8072" stroke="#000000" points="3056.418,-252 2947.582,-252 2947.582,-216 3056.418,-216 3056.418,-252"/>
<text text-anchor="middle" x="3002" y="-229.8" font-family="Times,serif" font-size="14.00" fill="#000000">MapValuesPipe </text>
</g>
<!-- SharedModule&#45;&gt;MapValuesPipe  -->
<g id="edge31" class="edge">
<title>SharedModule&#45;&gt;MapValuesPipe </title>
<path fill="none" stroke="#000000" stroke-dasharray="5,2" d="M2292.3197,-182C2460.2055,-182 2999.124,-182 2999.124,-182 2999.124,-182 2999.124,-205.8129 2999.124,-205.8129"/>
<polygon fill="#000000" stroke="#000000" points="2995.624,-205.8129 2999.124,-215.8129 3002.624,-205.813 2995.624,-205.8129"/>
</g>
<!-- SearchfilterPipe  -->
<g id="node33" class="node">
<title>SearchfilterPipe </title>
<polygon fill="#fb8072" stroke="#000000" points="2929.6829,-252 2820.3171,-252 2820.3171,-216 2929.6829,-216 2929.6829,-252"/>
<text text-anchor="middle" x="2875" y="-229.8" font-family="Times,serif" font-size="14.00" fill="#000000">SearchfilterPipe </text>
</g>
<!-- SharedModule&#45;&gt;SearchfilterPipe  -->
<g id="edge32" class="edge">
<title>SharedModule&#45;&gt;SearchfilterPipe </title>
<path fill="none" stroke="#000000" stroke-dasharray="5,2" d="M2292.3227,-183C2436.2688,-183 2845.7155,-183 2845.7155,-183 2845.7155,-183 2845.7155,-205.8757 2845.7155,-205.8757"/>
<polygon fill="#000000" stroke="#000000" points="2842.2155,-205.8757 2845.7155,-215.8757 2849.2155,-205.8757 2842.2155,-205.8757"/>
</g>
<!-- TriStateCheckboxComponent  -->
<g id="node34" class="node">
<title>TriStateCheckboxComponent </title>
<polygon fill="#fb8072" stroke="#000000" points="2802.1952,-252 2615.8048,-252 2615.8048,-216 2802.1952,-216 2802.1952,-252"/>
<text text-anchor="middle" x="2709" y="-229.8" font-family="Times,serif" font-size="14.00" fill="#000000">TriStateCheckboxComponent </text>
</g>
<!-- SharedModule&#45;&gt;TriStateCheckboxComponent  -->
<g id="edge33" class="edge">
<title>SharedModule&#45;&gt;TriStateCheckboxComponent </title>
<path fill="none" stroke="#000000" stroke-dasharray="5,2" d="M2292.229,-185C2394.3009,-185 2619.563,-185 2619.563,-185 2619.563,-185 2619.563,-205.7542 2619.563,-205.7542"/>
<polygon fill="#000000" stroke="#000000" points="2616.063,-205.7542 2619.563,-215.7542 2623.063,-205.7542 2616.063,-205.7542"/>
</g>
<!-- TriStateButtonComponent  -->
<g id="node35" class="node">
<title>TriStateButtonComponent </title>
<polygon fill="#fb8072" stroke="#000000" points="2598.047,-252 2429.953,-252 2429.953,-216 2598.047,-216 2598.047,-252"/>
<text text-anchor="middle" x="2514" y="-229.8" font-family="Times,serif" font-size="14.00" fill="#000000">TriStateButtonComponent </text>
</g>
<!-- SharedModule&#45;&gt;TriStateButtonComponent  -->
<g id="edge34" class="edge">
<title>SharedModule&#45;&gt;TriStateButtonComponent </title>
<path fill="none" stroke="#000000" stroke-dasharray="5,2" d="M2292.224,-186C2351.493,-186 2443.172,-186 2443.172,-186 2443.172,-186 2443.172,-205.8533 2443.172,-205.8533"/>
<polygon fill="#000000" stroke="#000000" points="2439.6721,-205.8532 2443.172,-215.8533 2446.6721,-205.8533 2439.6721,-205.8532"/>
</g>
<!-- PropertyTableComponent  -->
<g id="node36" class="node">
<title>PropertyTableComponent </title>
<polygon fill="#fb8072" stroke="#000000" points="2412.4138,-252 2247.5862,-252 2247.5862,-216 2412.4138,-216 2412.4138,-252"/>
<text text-anchor="middle" x="2330" y="-229.8" font-family="Times,serif" font-size="14.00" fill="#000000">PropertyTableComponent </text>
</g>
<!-- SharedModule&#45;&gt;PropertyTableComponent  -->
<g id="edge35" class="edge">
<title>SharedModule&#45;&gt;PropertyTableComponent </title>
<path fill="none" stroke="#000000" stroke-dasharray="5,2" d="M2269.8771,-187.1061C2269.8771,-187.1061 2269.8771,-205.991 2269.8771,-205.991"/>
<polygon fill="#000000" stroke="#000000" points="2266.3772,-205.9909 2269.8771,-215.991 2273.3772,-205.991 2266.3772,-205.9909"/>
</g>
<!-- DecorationComponent  -->
<g id="node37" class="node">
<title>DecorationComponent </title>
<polygon fill="#fb8072" stroke="#000000" points="2229.5246,-252 2082.4754,-252 2082.4754,-216 2229.5246,-216 2229.5246,-252"/>
<text text-anchor="middle" x="2156" y="-229.8" font-family="Times,serif" font-size="14.00" fill="#000000">DecorationComponent </text>
</g>
<!-- SharedModule&#45;&gt;DecorationComponent  -->
<g id="edge36" class="edge">
<title>SharedModule&#45;&gt;DecorationComponent </title>
<path fill="none" stroke="#000000" stroke-dasharray="5,2" d="M2211.6506,-187.1061C2211.6506,-187.1061 2211.6506,-205.991 2211.6506,-205.991"/>
<polygon fill="#000000" stroke="#000000" points="2208.1507,-205.9909 2211.6506,-215.991 2215.1507,-205.991 2208.1507,-205.9909"/>
</g>
<!-- MasterCheckboxComponent  -->
<g id="node38" class="node">
<title>MasterCheckboxComponent </title>
<polygon fill="#fb8072" stroke="#000000" points="2064.4684,-252 1883.5316,-252 1883.5316,-216 2064.4684,-216 2064.4684,-252"/>
<text text-anchor="middle" x="1974" y="-229.8" font-family="Times,serif" font-size="14.00" fill="#000000">MasterCheckboxComponent </text>
</g>
<!-- SharedModule&#45;&gt;MasterCheckboxComponent  -->
<g id="edge37" class="edge">
<title>SharedModule&#45;&gt;MasterCheckboxComponent </title>
<path fill="none" stroke="#000000" stroke-dasharray="5,2" d="M2193.7276,-186C2135.5903,-186 2046.7358,-186 2046.7358,-186 2046.7358,-186 2046.7358,-205.8533 2046.7358,-205.8533"/>
<polygon fill="#000000" stroke="#000000" points="2043.2359,-205.8532 2046.7358,-215.8533 2050.2359,-205.8533 2043.2359,-205.8532"/>
</g>
<!-- SortComponent  -->
<g id="node39" class="node">
<title>SortComponent </title>
<polygon fill="#fb8072" stroke="#000000" points="1866.1663,-252 1757.8337,-252 1757.8337,-216 1866.1663,-216 1866.1663,-252"/>
<text text-anchor="middle" x="1812" y="-229.8" font-family="Times,serif" font-size="14.00" fill="#000000">SortComponent </text>
</g>
<!-- SharedModule&#45;&gt;SortComponent  -->
<g id="edge38" class="edge">
<title>SharedModule&#45;&gt;SortComponent </title>
<path fill="none" stroke="#000000" stroke-dasharray="5,2" d="M2193.5961,-185C2083.98,-185 1830.0277,-185 1830.0277,-185 1830.0277,-185 1830.0277,-205.7542 1830.0277,-205.7542"/>
<polygon fill="#000000" stroke="#000000" points="1826.5278,-205.7542 1830.0277,-215.7542 1833.5278,-205.7542 1826.5278,-205.7542"/>
</g>
<!-- HandleComponent  -->
<g id="node40" class="node">
<title>HandleComponent </title>
<polygon fill="#fb8072" stroke="#000000" points="1739.7591,-252 1614.2409,-252 1614.2409,-216 1739.7591,-216 1739.7591,-252"/>
<text text-anchor="middle" x="1677" y="-229.8" font-family="Times,serif" font-size="14.00" fill="#000000">HandleComponent </text>
</g>
<!-- SharedModule&#45;&gt;HandleComponent  -->
<g id="edge39" class="edge">
<title>SharedModule&#45;&gt;HandleComponent </title>
<path fill="none" stroke="#000000" stroke-dasharray="5,2" d="M2193.5402,-183C2062.6661,-183 1717.2663,-183 1717.2663,-183 1717.2663,-183 1717.2663,-205.8757 1717.2663,-205.8757"/>
<polygon fill="#000000" stroke="#000000" points="1713.7664,-205.8757 1717.2663,-215.8757 1720.7664,-205.8757 1713.7664,-205.8757"/>
</g>
<!-- PropertiesDialogComponent  -->
<g id="node41" class="node">
<title>PropertiesDialogComponent </title>
<polygon fill="#fb8072" stroke="#000000" points="1596.6939,-252 1417.3061,-252 1417.3061,-216 1596.6939,-216 1596.6939,-252"/>
<text text-anchor="middle" x="1507" y="-229.8" font-family="Times,serif" font-size="14.00" fill="#000000">PropertiesDialogComponent </text>
</g>
<!-- SharedModule&#45;&gt;PropertiesDialogComponent  -->
<g id="edge40" class="edge">
<title>SharedModule&#45;&gt;PropertiesDialogComponent </title>
<path fill="none" stroke="#000000" stroke-dasharray="5,2" d="M2193.604,-182C2037.3004,-182 1563.7653,-182 1563.7653,-182 1563.7653,-182 1563.7653,-205.8129 1563.7653,-205.8129"/>
<polygon fill="#000000" stroke="#000000" points="1560.2653,-205.8129 1563.7653,-215.8129 1567.2653,-205.813 1560.2653,-205.8129"/>
</g>
<!-- GraphViewComponent  -->
<g id="node42" class="node">
<title>GraphViewComponent </title>
<polygon fill="#fb8072" stroke="#000000" points="1399.1327,-252 1248.8673,-252 1248.8673,-216 1399.1327,-216 1399.1327,-252"/>
<text text-anchor="middle" x="1324" y="-229.8" font-family="Times,serif" font-size="14.00" fill="#000000">GraphViewComponent </text>
</g>
<!-- SharedModule&#45;&gt;GraphViewComponent  -->
<g id="edge41" class="edge">
<title>SharedModule&#45;&gt;GraphViewComponent </title>
<path fill="none" stroke="#000000" stroke-dasharray="5,2" d="M2193.5001,-180C2010.8742,-180 1385.4262,-180 1385.4262,-180 1385.4262,-180 1385.4262,-205.7181 1385.4262,-205.7181"/>
<polygon fill="#000000" stroke="#000000" points="1381.9263,-205.718 1385.4262,-215.7181 1388.9263,-205.7181 1381.9263,-205.718"/>
</g>
<!-- TruncatePipe  -->
<g id="node43" class="node">
<title>TruncatePipe </title>
<polygon fill="#fb8072" stroke="#000000" points="1231.1355,-252 1136.8645,-252 1136.8645,-216 1231.1355,-216 1231.1355,-252"/>
<text text-anchor="middle" x="1184" y="-229.8" font-family="Times,serif" font-size="14.00" fill="#000000">TruncatePipe </text>
</g>
<!-- SharedModule&#45;&gt;TruncatePipe  -->
<g id="edge42" class="edge">
<title>SharedModule&#45;&gt;TruncatePipe </title>
<path fill="none" stroke="#000000" stroke-dasharray="5,2" d="M2193.7678,-179C1986.1921,-179 1193.0672,-179 1193.0672,-179 1193.0672,-179 1193.0672,-205.9909 1193.0672,-205.9909"/>
<polygon fill="#000000" stroke="#000000" points="1189.5672,-205.9909 1193.0672,-215.9909 1196.5672,-205.991 1189.5672,-205.9909"/>
</g>
<!-- OrderByPipe  -->
<g id="node44" class="node">
<title>OrderByPipe </title>
<polygon fill="#fb8072" stroke="#000000" points="1118.8675,-252 1025.1325,-252 1025.1325,-216 1118.8675,-216 1118.8675,-252"/>
<text text-anchor="middle" x="1072" y="-229.8" font-family="Times,serif" font-size="14.00" fill="#000000">OrderByPipe </text>
</g>
<!-- SharedModule&#45;&gt;OrderByPipe  -->
<g id="edge43" class="edge">
<title>SharedModule&#45;&gt;OrderByPipe </title>
<path fill="none" stroke="#000000" stroke-dasharray="5,2" d="M2193.4315,-177C1970.5492,-177 1072,-177 1072,-177 1072,-177 1072,-205.9648 1072,-205.9648"/>
<polygon fill="#000000" stroke="#000000" points="1068.5001,-205.9648 1072,-215.9648 1075.5001,-205.9649 1068.5001,-205.9648"/>
</g>
<!-- ConfirmComponent  -->
<g id="node45" class="node">
<title>ConfirmComponent </title>
<polygon fill="#fb8072" stroke="#000000" points="1007.2717,-252 874.7283,-252 874.7283,-216 1007.2717,-216 1007.2717,-252"/>
<text text-anchor="middle" x="941" y="-229.8" font-family="Times,serif" font-size="14.00" fill="#000000">ConfirmComponent </text>
</g>
<!-- SharedModule&#45;&gt;ConfirmComponent  -->
<g id="edge44" class="edge">
<title>SharedModule&#45;&gt;ConfirmComponent </title>
<path fill="none" stroke="#000000" stroke-dasharray="5,2" d="M2193.4586,-176C1962.0545,-176 998.8115,-176 998.8115,-176 998.8115,-176 998.8115,-205.9664 998.8115,-205.9664"/>
<polygon fill="#000000" stroke="#000000" points="995.3115,-205.9664 998.8116,-215.9664 1002.3115,-205.9663 995.3115,-205.9664"/>
</g>
<!-- AutoResizeDirective  -->
<g id="node46" class="node">
<title>AutoResizeDirective </title>
<polygon fill="#fb8072" stroke="#000000" points="856.3956,-252 719.6044,-252 719.6044,-216 856.3956,-216 856.3956,-252"/>
<text text-anchor="middle" x="788" y="-229.8" font-family="Times,serif" font-size="14.00" fill="#000000">AutoResizeDirective </text>
</g>
<!-- SharedModule&#45;&gt;AutoResizeDirective  -->
<g id="edge45" class="edge">
<title>SharedModule&#45;&gt;AutoResizeDirective </title>
<path fill="none" stroke="#000000" stroke-dasharray="5,2" d="M2193.4693,-175C1945.5561,-175 851.3185,-175 851.3185,-175 851.3185,-175 851.3185,-205.9775 851.3185,-205.9775"/>
<polygon fill="#000000" stroke="#000000" points="847.8186,-205.9774 851.3185,-215.9775 854.8186,-205.9775 847.8186,-205.9774"/>
</g>
<!-- LoaderComponent  -->
<g id="node47" class="node">
<title>LoaderComponent </title>
<polygon fill="#fb8072" stroke="#000000" points="701.4757,-252 576.5243,-252 576.5243,-216 701.4757,-216 701.4757,-252"/>
<text text-anchor="middle" x="639" y="-229.8" font-family="Times,serif" font-size="14.00" fill="#000000">LoaderComponent </text>
</g>
<!-- SharedModule&#45;&gt;LoaderComponent  -->
<g id="edge46" class="edge">
<title>SharedModule&#45;&gt;LoaderComponent </title>
<path fill="none" stroke="#000000" stroke-dasharray="5,2" d="M2193.4125,-173C1927.9189,-173 686.5241,-173 686.5241,-173 686.5241,-173 686.5241,-205.698 686.5241,-205.698"/>
<polygon fill="#000000" stroke="#000000" points="683.0242,-205.698 686.5241,-215.698 690.0242,-205.698 683.0242,-205.698"/>
</g>
<!-- SharedAppsService -->
<g id="node48" class="node">
<title>SharedAppsService</title>
<ellipse fill="#fdb462" stroke="#000000" cx="759" cy="-104" rx="87.3789" ry="18"/>
<text text-anchor="middle" x="759" y="-99.8" font-family="Times,serif" font-size="14.00" fill="#000000">SharedAppsService</text>
</g>
<!-- SharedAppsService&#45;&gt;SharedModule -->
<g id="edge47" class="edge">
<title>SharedAppsService&#45;&gt;SharedModule</title>
<path fill="none" stroke="#000000" d="M782.8707,-121.6009C782.8707,-139.9308 782.8707,-166 782.8707,-166 782.8707,-166 2183.5822,-166 2183.5822,-166"/>
<polygon fill="#000000" stroke="#000000" points="2183.5823,-169.5001 2193.5822,-166 2183.5822,-162.5001 2183.5823,-169.5001"/>
</g>
<!-- SharedAboutService -->
<g id="node49" class="node">
<title>SharedAboutService</title>
<ellipse fill="#fdb462" stroke="#000000" cx="563" cy="-104" rx="90.8916" ry="18"/>
<text text-anchor="middle" x="563" y="-99.8" font-family="Times,serif" font-size="14.00" fill="#000000">SharedAboutService</text>
</g>
<!-- SharedAboutService&#45;&gt;SharedModule -->
<g id="edge48" class="edge">
<title>SharedAboutService&#45;&gt;SharedModule</title>
<path fill="none" stroke="#000000" d="M615.3542,-118.9301C615.3542,-137.5601 615.3542,-167 615.3542,-167 615.3542,-167 2183.3991,-167 2183.3991,-167"/>
<polygon fill="#000000" stroke="#000000" points="2183.3991,-170.5001 2193.3991,-167 2183.399,-163.5001 2183.3991,-170.5001"/>
</g>
<!-- ParserService -->
<g id="node50" class="node">
<title>ParserService</title>
<ellipse fill="#fdb462" stroke="#000000" cx="390" cy="-104" rx="64.2378" ry="18"/>
<text text-anchor="middle" x="390" y="-99.8" font-family="Times,serif" font-size="14.00" fill="#000000">ParserService</text>
</g>
<!-- ParserService&#45;&gt;SharedModule -->
<g id="edge49" class="edge">
<title>ParserService&#45;&gt;SharedModule</title>
<path fill="none" stroke="#000000" d="M390,-122.1061C390,-141.3391 390,-169 390,-169 390,-169 2183.4367,-169 2183.4367,-169"/>
<polygon fill="#000000" stroke="#000000" points="2183.4368,-172.5001 2193.4367,-169 2183.4367,-165.5001 2183.4368,-172.5001"/>
</g>
<!-- ConfirmService -->
<g id="node51" class="node">
<title>ConfirmService</title>
<ellipse fill="#fdb462" stroke="#000000" cx="235" cy="-104" rx="72.9295" ry="18"/>
<text text-anchor="middle" x="235" y="-99.8" font-family="Times,serif" font-size="14.00" fill="#000000">ConfirmService</text>
</g>
<!-- ConfirmService&#45;&gt;SharedModule -->
<g id="edge50" class="edge">
<title>ConfirmService&#45;&gt;SharedModule</title>
<path fill="none" stroke="#000000" d="M235,-122.0348C235,-141.5762 235,-170 235,-170 235,-170 2183.3638,-170 2183.3638,-170"/>
<polygon fill="#000000" stroke="#000000" points="2183.3638,-173.5001 2193.3638,-170 2183.3637,-166.5001 2183.3638,-173.5001"/>
</g>
<!-- BusyService -->
<g id="node52" class="node">
<title>BusyService</title>
<ellipse fill="#fdb462" stroke="#000000" cx="84" cy="-104" rx="59.6897" ry="18"/>
<text text-anchor="middle" x="84" y="-99.8" font-family="Times,serif" font-size="14.00" fill="#000000">BusyService</text>
</g>
<!-- BusyService&#45;&gt;SharedModule -->
<g id="edge51" class="edge">
<title>BusyService&#45;&gt;SharedModule</title>
<path fill="none" stroke="#000000" d="M84,-122.2228C84,-142.3652 84,-172 84,-172 84,-172 2183.5908,-172 2183.5908,-172"/>
<polygon fill="#000000" stroke="#000000" points="2183.5909,-175.5001 2193.5908,-172 2183.5908,-168.5001 2183.5909,-175.5001"/>
</g>
</g>
</svg>
