<?xml version="1.0" encoding="UTF-8" standalone="no"?>
<!DOCTYPE svg PUBLIC "-//W3C//DTD SVG 1.1//EN"
 "http://www.w3.org/Graphics/SVG/1.1/DTD/svg11.dtd">
<!-- Generated by graphviz version 2.40.1 (20161225.0304)
 -->
<!-- Title: dependencies Pages: 1 -->
<svg width="4510pt" height="211pt"
 viewBox="0.00 0.00 4510.00 211.00" xmlns="http://www.w3.org/2000/svg" xmlns:xlink="http://www.w3.org/1999/xlink">
<g id="graph0" class="graph" transform="scale(1 1) rotate(0) translate(4 207)">
<title>dependencies</title>
<polygon fill="#ffffff" stroke="transparent" points="-4,4 -4,-207 4506,-207 4506,4 -4,4"/>
<text text-anchor="start" x="2230.0091" y="-42.4" font-family="sans-serif" font-weight="bold" font-size="14.00" fill="#000000">Legend</text>
<polygon fill="#ffffb3" stroke="transparent" points="2017,-10 2017,-30 2037,-30 2037,-10 2017,-10"/>
<text text-anchor="start" x="2040.629" y="-15.4" font-family="sans-serif" font-size="14.00" fill="#000000"> &#160;Declarations</text>
<polygon fill="#8dd3c7" stroke="transparent" points="2130,-10 2130,-30 2150,-30 2150,-10 2130,-10"/>
<text text-anchor="start" x="2153.7251" y="-15.4" font-family="sans-serif" font-size="14.00" fill="#000000"> &#160;Module</text>
<polygon fill="#80b1d3" stroke="transparent" points="2216,-10 2216,-30 2236,-30 2236,-10 2216,-10"/>
<text text-anchor="start" x="2239.7812" y="-15.4" font-family="sans-serif" font-size="14.00" fill="#000000"> &#160;Bootstrap</text>
<polygon fill="#fdb462" stroke="transparent" points="2313,-10 2313,-30 2333,-30 2333,-10 2313,-10"/>
<text text-anchor="start" x="2336.6732" y="-15.4" font-family="sans-serif" font-size="14.00" fill="#000000"> &#160;Providers</text>
<polygon fill="#fb8072" stroke="transparent" points="2409,-10 2409,-30 2429,-30 2429,-10 2409,-10"/>
<text text-anchor="start" x="2432.7258" y="-15.4" font-family="sans-serif" font-size="14.00" fill="#000000"> &#160;Exports</text>
<g id="clust1" class="cluster">
<title>cluster_TasksModule</title>
<polygon fill="none" stroke="#000000" stroke-dasharray="1,5" points="8,-70 8,-195 4494,-195 4494,-70 8,-70"/>
</g>
<g id="clust2" class="cluster">
<title>cluster_TasksModule_declarations</title>
<polygon fill="none" stroke="#000000" points="1490,-78 1490,-130 4486,-130 4486,-78 1490,-78"/>
</g>
<g id="clust19" class="cluster">
<title>cluster_TasksModule_imports</title>
<polygon fill="none" stroke="#000000" points="999,-78 999,-130 1482,-130 1482,-78 999,-78"/>
</g>
<g id="clust22" class="cluster">
<title>cluster_TasksModule_providers</title>
<polygon fill="none" stroke="#000000" points="16,-78 16,-130 991,-130 991,-78 16,-78"/>
</g>
<!-- TasksComponent -->
<g id="node1" class="node">
<title>TasksComponent</title>
<polygon fill="#ffffb3" stroke="#000000" points="4477.9888,-122 4364.0112,-122 4364.0112,-86 4477.9888,-86 4477.9888,-122"/>
<text text-anchor="middle" x="4421" y="-99.8" font-family="Times,serif" font-size="14.00" fill="#000000">TasksComponent</text>
</g>
<!-- TasksModule -->
<g id="node17" class="node">
<title>TasksModule</title>
<polygon fill="#8dd3c7" stroke="#000000" points="2071.2064,-187 2068.2064,-191 2047.2064,-191 2044.2064,-187 1978.7936,-187 1978.7936,-151 2071.2064,-151 2071.2064,-187"/>
<text text-anchor="middle" x="2025" y="-164.8" font-family="Times,serif" font-size="14.00" fill="#000000">TasksModule</text>
</g>
<!-- TasksComponent&#45;&gt;TasksModule -->
<g id="edge1" class="edge">
<title>TasksComponent&#45;&gt;TasksModule</title>
<path fill="none" stroke="#000000" d="M4421,-122.3802C4421,-146.2785 4421,-185 4421,-185 4421,-185 2081.2538,-185 2081.2538,-185"/>
<polygon fill="#000000" stroke="#000000" points="2081.2538,-181.5001 2071.2538,-185 2081.2538,-188.5001 2081.2538,-181.5001"/>
</g>
<!-- TaskDefinitionCreateComponent -->
<g id="node2" class="node">
<title>TaskDefinitionCreateComponent</title>
<polygon fill="#ffffb3" stroke="#000000" points="4346.1204,-122 4143.8796,-122 4143.8796,-86 4346.1204,-86 4346.1204,-122"/>
<text text-anchor="middle" x="4245" y="-99.8" font-family="Times,serif" font-size="14.00" fill="#000000">TaskDefinitionCreateComponent</text>
</g>
<!-- TaskDefinitionCreateComponent&#45;&gt;TasksModule -->
<g id="edge2" class="edge">
<title>TaskDefinitionCreateComponent&#45;&gt;TasksModule</title>
<path fill="none" stroke="#000000" d="M4245,-122.0908C4245,-145.1328 4245,-182 4245,-182 4245,-182 2081.1127,-182 2081.1127,-182"/>
<polygon fill="#000000" stroke="#000000" points="2081.1128,-178.5001 2071.1127,-182 2081.1127,-185.5001 2081.1128,-178.5001"/>
</g>
<!-- TaskDefinitionCreateDialogComponent -->
<g id="node3" class="node">
<title>TaskDefinitionCreateDialogComponent</title>
<polygon fill="#ffffb3" stroke="#000000" points="4125.2226,-122 3884.7774,-122 3884.7774,-86 4125.2226,-86 4125.2226,-122"/>
<text text-anchor="middle" x="4005" y="-99.8" font-family="Times,serif" font-size="14.00" fill="#000000">TaskDefinitionCreateDialogComponent</text>
</g>
<!-- TaskDefinitionCreateDialogComponent&#45;&gt;TasksModule -->
<g id="edge3" class="edge">
<title>TaskDefinitionCreateDialogComponent&#45;&gt;TasksModule</title>
<path fill="none" stroke="#000000" d="M4005,-122.1554C4005,-144.3519 4005,-179 4005,-179 4005,-179 2081.5087,-179 2081.5087,-179"/>
<polygon fill="#000000" stroke="#000000" points="2081.5088,-175.5001 2071.5087,-179 2081.5087,-182.5001 2081.5088,-175.5001"/>
</g>
<!-- TaskExecutionsComponent -->
<g id="node4" class="node">
<title>TaskExecutionsComponent</title>
<polygon fill="#ffffb3" stroke="#000000" points="3866.252,-122 3695.748,-122 3695.748,-86 3866.252,-86 3866.252,-122"/>
<text text-anchor="middle" x="3781" y="-99.8" font-family="Times,serif" font-size="14.00" fill="#000000">TaskExecutionsComponent</text>
</g>
<!-- TaskExecutionsComponent&#45;&gt;TasksModule -->
<g id="edge4" class="edge">
<title>TaskExecutionsComponent&#45;&gt;TasksModule</title>
<path fill="none" stroke="#000000" d="M3781,-122.1686C3781,-143.498 3781,-176 3781,-176 3781,-176 2081.5164,-176 2081.5164,-176"/>
<polygon fill="#000000" stroke="#000000" points="2081.5165,-172.5001 2071.5164,-176 2081.5164,-179.5001 2081.5165,-172.5001"/>
</g>
<!-- TaskExecutionComponent -->
<g id="node5" class="node">
<title>TaskExecutionComponent</title>
<polygon fill="#ffffb3" stroke="#000000" points="3677.8075,-122 3512.1925,-122 3512.1925,-86 3677.8075,-86 3677.8075,-122"/>
<text text-anchor="middle" x="3595" y="-99.8" font-family="Times,serif" font-size="14.00" fill="#000000">TaskExecutionComponent</text>
</g>
<!-- TaskExecutionComponent&#45;&gt;TasksModule -->
<g id="edge5" class="edge">
<title>TaskExecutionComponent&#45;&gt;TasksModule</title>
<path fill="none" stroke="#000000" d="M3595,-122.0267C3595,-142.7672 3595,-174 3595,-174 3595,-174 2081.1369,-174 2081.1369,-174"/>
<polygon fill="#000000" stroke="#000000" points="2081.1369,-170.5001 2071.1369,-174 2081.1368,-177.5001 2081.1369,-170.5001"/>
</g>
<!-- TaskLaunchComponent -->
<g id="node6" class="node">
<title>TaskLaunchComponent</title>
<polygon fill="#ffffb3" stroke="#000000" points="3494.0267,-122 3343.9733,-122 3343.9733,-86 3494.0267,-86 3494.0267,-122"/>
<text text-anchor="middle" x="3419" y="-99.8" font-family="Times,serif" font-size="14.00" fill="#000000">TaskLaunchComponent</text>
</g>
<!-- TaskLaunchComponent&#45;&gt;TasksModule -->
<g id="edge6" class="edge">
<title>TaskLaunchComponent&#45;&gt;TasksModule</title>
<path fill="none" stroke="#000000" d="M3419,-122.308C3419,-142.1455 3419,-171 3419,-171 3419,-171 2081.3809,-171 2081.3809,-171"/>
<polygon fill="#000000" stroke="#000000" points="2081.3809,-167.5001 2071.3809,-171 2081.3808,-174.5001 2081.3809,-167.5001"/>
</g>
<!-- TaskGraphViewComponent -->
<g id="node7" class="node">
<title>TaskGraphViewComponent</title>
<polygon fill="#ffffb3" stroke="#000000" points="3325.8445,-122 3152.1555,-122 3152.1555,-86 3325.8445,-86 3325.8445,-122"/>
<text text-anchor="middle" x="3239" y="-99.8" font-family="Times,serif" font-size="14.00" fill="#000000">TaskGraphViewComponent</text>
</g>
<!-- TaskGraphViewComponent&#45;&gt;TasksModule -->
<g id="edge7" class="edge">
<title>TaskGraphViewComponent&#45;&gt;TasksModule</title>
<path fill="none" stroke="#000000" d="M3239,-122.1686C3239,-141.0898 3239,-168 3239,-168 3239,-168 2081.1078,-168 2081.1078,-168"/>
<polygon fill="#000000" stroke="#000000" points="2081.1079,-164.5001 2071.1078,-168 2081.1078,-171.5001 2081.1079,-164.5001"/>
</g>
<!-- NodeComponent -->
<g id="node8" class="node">
<title>NodeComponent</title>
<polygon fill="#ffffb3" stroke="#000000" points="3133.6541,-122 3022.3459,-122 3022.3459,-86 3133.6541,-86 3133.6541,-122"/>
<text text-anchor="middle" x="3078" y="-99.8" font-family="Times,serif" font-size="14.00" fill="#000000">NodeComponent</text>
</g>
<!-- NodeComponent&#45;&gt;TasksModule -->
<g id="edge8" class="edge">
<title>NodeComponent&#45;&gt;TasksModule</title>
<path fill="none" stroke="#000000" d="M3078,-122.302C3078,-140.2699 3078,-165 3078,-165 3078,-165 2081.2634,-165 2081.2634,-165"/>
<polygon fill="#000000" stroke="#000000" points="2081.2635,-161.5001 2071.2634,-165 2081.2634,-168.5001 2081.2635,-161.5001"/>
</g>
<!-- TaskPropertiesDialogComponent -->
<g id="node9" class="node">
<title>TaskPropertiesDialogComponent</title>
<polygon fill="#ffffb3" stroke="#000000" points="3003.9058,-122 2800.0942,-122 2800.0942,-86 3003.9058,-86 3003.9058,-122"/>
<text text-anchor="middle" x="2902" y="-99.8" font-family="Times,serif" font-size="14.00" fill="#000000">TaskPropertiesDialogComponent</text>
</g>
<!-- TaskPropertiesDialogComponent&#45;&gt;TasksModule -->
<g id="edge9" class="edge">
<title>TaskPropertiesDialogComponent&#45;&gt;TasksModule</title>
<path fill="none" stroke="#000000" d="M2902,-122.0225C2902,-139.3734 2902,-163 2902,-163 2902,-163 2081.2239,-163 2081.2239,-163"/>
<polygon fill="#000000" stroke="#000000" points="2081.2239,-159.5001 2071.2239,-163 2081.2238,-166.5001 2081.2239,-159.5001"/>
</g>
<!-- TaskDefinitionComponent -->
<g id="node10" class="node">
<title>TaskDefinitionComponent</title>
<polygon fill="#ffffb3" stroke="#000000" points="2782.0884,-122 2615.9116,-122 2615.9116,-86 2782.0884,-86 2782.0884,-122"/>
<text text-anchor="middle" x="2699" y="-99.8" font-family="Times,serif" font-size="14.00" fill="#000000">TaskDefinitionComponent</text>
</g>
<!-- TaskDefinitionComponent&#45;&gt;TasksModule -->
<g id="edge10" class="edge">
<title>TaskDefinitionComponent&#45;&gt;TasksModule</title>
<path fill="none" stroke="#000000" d="M2699,-122.027C2699,-138.3976 2699,-160 2699,-160 2699,-160 2081.3267,-160 2081.3267,-160"/>
<polygon fill="#000000" stroke="#000000" points="2081.3268,-156.5001 2071.3267,-160 2081.3267,-163.5001 2081.3268,-156.5001"/>
</g>
<!-- TaskStatusComponent -->
<g id="node11" class="node">
<title>TaskStatusComponent</title>
<polygon fill="#ffffb3" stroke="#000000" points="2598.2674,-122 2455.7326,-122 2455.7326,-86 2598.2674,-86 2598.2674,-122"/>
<text text-anchor="middle" x="2527" y="-99.8" font-family="Times,serif" font-size="14.00" fill="#000000">TaskStatusComponent</text>
</g>
<!-- TaskStatusComponent&#45;&gt;TasksModule -->
<g id="edge11" class="edge">
<title>TaskStatusComponent&#45;&gt;TasksModule</title>
<path fill="none" stroke="#000000" d="M2527,-122.2396C2527,-137.5706 2527,-157 2527,-157 2527,-157 2081.3271,-157 2081.3271,-157"/>
<polygon fill="#000000" stroke="#000000" points="2081.3272,-153.5001 2071.3271,-157 2081.3271,-160.5001 2081.3272,-153.5001"/>
</g>
<!-- TaskDefinitionsDestroyComponent -->
<g id="node12" class="node">
<title>TaskDefinitionsDestroyComponent</title>
<polygon fill="#ffffb3" stroke="#000000" points="2437.8501,-122 2222.1499,-122 2222.1499,-86 2437.8501,-86 2437.8501,-122"/>
<text text-anchor="middle" x="2330" y="-99.8" font-family="Times,serif" font-size="14.00" fill="#000000">TaskDefinitionsDestroyComponent</text>
</g>
<!-- TaskDefinitionsDestroyComponent&#45;&gt;TasksModule -->
<g id="edge12" class="edge">
<title>TaskDefinitionsDestroyComponent&#45;&gt;TasksModule</title>
<path fill="none" stroke="#000000" d="M2330,-122.0511C2330,-136.373 2330,-154 2330,-154 2330,-154 2081.3229,-154 2081.3229,-154"/>
<polygon fill="#000000" stroke="#000000" points="2081.323,-150.5001 2071.3229,-154 2081.3229,-157.5001 2081.323,-150.5001"/>
</g>
<!-- TaskDefinitionsComponent -->
<g id="node13" class="node">
<title>TaskDefinitionsComponent</title>
<polygon fill="#ffffb3" stroke="#000000" points="2203.5336,-122 2032.4664,-122 2032.4664,-86 2203.5336,-86 2203.5336,-122"/>
<text text-anchor="middle" x="2118" y="-99.8" font-family="Times,serif" font-size="14.00" fill="#000000">TaskDefinitionsComponent</text>
</g>
<!-- TaskDefinitionsComponent&#45;&gt;TasksModule -->
<g id="edge13" class="edge">
<title>TaskDefinitionsComponent&#45;&gt;TasksModule</title>
<path fill="none" stroke="#000000" d="M2051.6683,-122.1061C2051.6683,-122.1061 2051.6683,-140.991 2051.6683,-140.991"/>
<polygon fill="#000000" stroke="#000000" points="2048.1684,-140.9909 2051.6683,-150.991 2055.1684,-140.991 2048.1684,-140.9909"/>
</g>
<!-- TaskSummaryComponent -->
<g id="node14" class="node">
<title>TaskSummaryComponent</title>
<polygon fill="#ffffb3" stroke="#000000" points="2014.4832,-122 1851.5168,-122 1851.5168,-86 2014.4832,-86 2014.4832,-122"/>
<text text-anchor="middle" x="1933" y="-99.8" font-family="Times,serif" font-size="14.00" fill="#000000">TaskSummaryComponent</text>
</g>
<!-- TaskSummaryComponent&#45;&gt;TasksModule -->
<g id="edge14" class="edge">
<title>TaskSummaryComponent&#45;&gt;TasksModule</title>
<path fill="none" stroke="#000000" d="M1996.6943,-122.1061C1996.6943,-122.1061 1996.6943,-140.991 1996.6943,-140.991"/>
<polygon fill="#000000" stroke="#000000" points="1993.1943,-140.9909 1996.6943,-150.991 2000.1943,-140.991 1993.1943,-140.9909"/>
</g>
<!-- TaskGraphComponent -->
<g id="node15" class="node">
<title>TaskGraphComponent</title>
<polygon fill="#ffffb3" stroke="#000000" points="1833.5268,-122 1690.4732,-122 1690.4732,-86 1833.5268,-86 1833.5268,-122"/>
<text text-anchor="middle" x="1762" y="-99.8" font-family="Times,serif" font-size="14.00" fill="#000000">TaskGraphComponent</text>
</g>
<!-- TaskGraphComponent&#45;&gt;TasksModule -->
<g id="edge15" class="edge">
<title>TaskGraphComponent&#45;&gt;TasksModule</title>
<path fill="none" stroke="#000000" d="M1762,-122.0511C1762,-136.373 1762,-154 1762,-154 1762,-154 1968.8879,-154 1968.8879,-154"/>
<polygon fill="#000000" stroke="#000000" points="1968.888,-157.5001 1978.8879,-154 1968.8879,-150.5001 1968.888,-157.5001"/>
</g>
<!-- TasksTabulationComponent -->
<g id="node16" class="node">
<title>TasksTabulationComponent</title>
<polygon fill="#ffffb3" stroke="#000000" points="1672.1428,-122 1497.8572,-122 1497.8572,-86 1672.1428,-86 1672.1428,-122"/>
<text text-anchor="middle" x="1585" y="-99.8" font-family="Times,serif" font-size="14.00" fill="#000000">TasksTabulationComponent</text>
</g>
<!-- TasksTabulationComponent&#45;&gt;TasksModule -->
<g id="edge16" class="edge">
<title>TasksTabulationComponent&#45;&gt;TasksModule</title>
<path fill="none" stroke="#000000" d="M1585,-122.2396C1585,-137.5706 1585,-157 1585,-157 1585,-157 1968.7439,-157 1968.7439,-157"/>
<polygon fill="#000000" stroke="#000000" points="1968.7439,-160.5001 1978.7439,-157 1968.7439,-153.5001 1968.7439,-160.5001"/>
</g>
<!-- TasksRoutingModule -->
<g id="node18" class="node">
<title>TasksRoutingModule</title>
<polygon fill="#8dd3c7" stroke="#000000" points="1473.8244,-122 1470.8244,-126 1449.8244,-126 1446.8244,-122 1336.1756,-122 1336.1756,-86 1473.8244,-86 1473.8244,-122"/>
<text text-anchor="middle" x="1405" y="-99.8" font-family="Times,serif" font-size="14.00" fill="#000000">TasksRoutingModule</text>
</g>
<!-- TasksRoutingModule&#45;&gt;TasksModule -->
<g id="edge17" class="edge">
<title>TasksRoutingModule&#45;&gt;TasksModule</title>
<path fill="none" stroke="#000000" d="M1405,-122.027C1405,-138.3976 1405,-160 1405,-160 1405,-160 1968.6528,-160 1968.6528,-160"/>
<polygon fill="#000000" stroke="#000000" points="1968.6528,-163.5001 1978.6528,-160 1968.6528,-156.5001 1968.6528,-163.5001"/>
</g>
<!-- SharedModule -->
<g id="node19" class="node">
<title>SharedModule</title>
<polygon fill="#8dd3c7" stroke="#000000" points="1318.4231,-122 1315.4231,-126 1294.4231,-126 1291.4231,-122 1219.5769,-122 1219.5769,-86 1318.4231,-86 1318.4231,-122"/>
<text text-anchor="middle" x="1269" y="-99.8" font-family="Times,serif" font-size="14.00" fill="#000000">SharedModule</text>
</g>
<!-- SharedModule&#45;&gt;TasksModule -->
<g id="edge18" class="edge">
<title>SharedModule&#45;&gt;TasksModule</title>
<path fill="none" stroke="#000000" d="M1269,-122.0225C1269,-139.3734 1269,-163 1269,-163 1269,-163 1968.8468,-163 1968.8468,-163"/>
<polygon fill="#000000" stroke="#000000" points="1968.8469,-166.5001 1978.8468,-163 1968.8468,-159.5001 1968.8469,-166.5001"/>
</g>
<!-- AppsModule -->
<g id="node20" class="node">
<title>AppsModule</title>
<polygon fill="#8dd3c7" stroke="#000000" points="1201.6011,-122 1198.6011,-126 1177.6011,-126 1174.6011,-122 1112.3989,-122 1112.3989,-86 1201.6011,-86 1201.6011,-122"/>
<text text-anchor="middle" x="1157" y="-99.8" font-family="Times,serif" font-size="14.00" fill="#000000">AppsModule</text>
</g>
<!-- AppsModule&#45;&gt;TasksModule -->
<g id="edge19" class="edge">
<title>AppsModule&#45;&gt;TasksModule</title>
<path fill="none" stroke="#000000" d="M1157,-122.302C1157,-140.2699 1157,-165 1157,-165 1157,-165 1968.6394,-165 1968.6394,-165"/>
<polygon fill="#000000" stroke="#000000" points="1968.6395,-168.5001 1978.6394,-165 1968.6394,-161.5001 1968.6395,-168.5001"/>
</g>
<!-- AuthModule -->
<g id="node21" class="node">
<title>AuthModule</title>
<polygon fill="#8dd3c7" stroke="#000000" points="1094.5482,-122 1091.5482,-126 1070.5482,-126 1067.5482,-122 1007.4518,-122 1007.4518,-86 1094.5482,-86 1094.5482,-122"/>
<text text-anchor="middle" x="1051" y="-99.8" font-family="Times,serif" font-size="14.00" fill="#000000">AuthModule</text>
</g>
<!-- AuthModule&#45;&gt;TasksModule -->
<g id="edge20" class="edge">
<title>AuthModule&#45;&gt;TasksModule</title>
<path fill="none" stroke="#000000" d="M1051,-122.1686C1051,-141.0898 1051,-168 1051,-168 1051,-168 1968.6772,-168 1968.6772,-168"/>
<polygon fill="#000000" stroke="#000000" points="1968.6772,-171.5001 1978.6772,-168 1968.6772,-164.5001 1968.6772,-171.5001"/>
</g>
<!-- TasksService -->
<g id="node22" class="node">
<title>TasksService</title>
<ellipse fill="#fdb462" stroke="#000000" cx="920" cy="-104" rx="62.5354" ry="18"/>
<text text-anchor="middle" x="920" y="-99.8" font-family="Times,serif" font-size="14.00" fill="#000000">TasksService</text>
</g>
<!-- TasksService&#45;&gt;TasksModule -->
<g id="edge21" class="edge">
<title>TasksService&#45;&gt;TasksModule</title>
<path fill="none" stroke="#000000" d="M920,-122.308C920,-142.1455 920,-171 920,-171 920,-171 1968.5764,-171 1968.5764,-171"/>
<polygon fill="#000000" stroke="#000000" points="1968.5765,-174.5001 1978.5764,-171 1968.5764,-167.5001 1968.5765,-174.5001"/>
</g>
<!-- MetamodelService -->
<g id="node23" class="node">
<title>MetamodelService</title>
<ellipse fill="#fdb462" stroke="#000000" cx="756" cy="-104" rx="83.945" ry="18"/>
<text text-anchor="middle" x="756" y="-99.8" font-family="Times,serif" font-size="14.00" fill="#000000">MetamodelService</text>
</g>
<!-- MetamodelService&#45;&gt;TasksModule -->
<g id="edge22" class="edge">
<title>MetamodelService&#45;&gt;TasksModule</title>
<path fill="none" stroke="#000000" d="M756,-122.0267C756,-142.7672 756,-174 756,-174 756,-174 1968.709,-174 1968.709,-174"/>
<polygon fill="#000000" stroke="#000000" points="1968.709,-177.5001 1978.709,-174 1968.7089,-170.5001 1968.709,-177.5001"/>
</g>
<!-- RenderService -->
<g id="node24" class="node">
<title>RenderService</title>
<ellipse fill="#fdb462" stroke="#000000" cx="586" cy="-104" rx="67.7548" ry="18"/>
<text text-anchor="middle" x="586" y="-99.8" font-family="Times,serif" font-size="14.00" fill="#000000">RenderService</text>
</g>
<!-- RenderService&#45;&gt;TasksModule -->
<g id="edge23" class="edge">
<title>RenderService&#45;&gt;TasksModule</title>
<path fill="none" stroke="#000000" d="M586,-122.1686C586,-143.498 586,-176 586,-176 586,-176 1968.7517,-176 1968.7517,-176"/>
<polygon fill="#000000" stroke="#000000" points="1968.7517,-179.5001 1978.7517,-176 1968.7517,-172.5001 1968.7517,-179.5001"/>
</g>
<!-- EditorService -->
<g id="node25" class="node">
<title>EditorService</title>
<ellipse fill="#fdb462" stroke="#000000" cx="436" cy="-104" rx="64.261" ry="18"/>
<text text-anchor="middle" x="436" y="-99.8" font-family="Times,serif" font-size="14.00" fill="#000000">EditorService</text>
</g>
<!-- EditorService&#45;&gt;TasksModule -->
<g id="edge24" class="edge">
<title>EditorService&#45;&gt;TasksModule</title>
<path fill="none" stroke="#000000" d="M436,-122.1554C436,-144.3519 436,-179 436,-179 436,-179 1968.7323,-179 1968.7323,-179"/>
<polygon fill="#000000" stroke="#000000" points="1968.7323,-182.5001 1978.7323,-179 1968.7323,-175.5001 1968.7323,-182.5001"/>
</g>
<!-- ToolsService -->
<g id="node26" class="node">
<title>ToolsService</title>
<ellipse fill="#fdb462" stroke="#000000" cx="292" cy="-104" rx="61.975" ry="18"/>
<text text-anchor="middle" x="292" y="-99.8" font-family="Times,serif" font-size="14.00" fill="#000000">ToolsService</text>
</g>
<!-- ToolsService&#45;&gt;TasksModule -->
<g id="edge25" class="edge">
<title>ToolsService&#45;&gt;TasksModule</title>
<path fill="none" stroke="#000000" d="M292,-122.0908C292,-145.1328 292,-182 292,-182 292,-182 1968.6464,-182 1968.6464,-182"/>
<polygon fill="#000000" stroke="#000000" points="1968.6465,-185.5001 1978.6464,-182 1968.6464,-178.5001 1968.6465,-185.5001"/>
</g>
<!-- ContentAssistService -->
<g id="node27" class="node">
<title>ContentAssistService</title>
<ellipse fill="#fdb462" stroke="#000000" cx="118" cy="-104" rx="94.3543" ry="18"/>
<text text-anchor="middle" x="118" y="-99.8" font-family="Times,serif" font-size="14.00" fill="#000000">ContentAssistService</text>
</g>
<!-- ContentAssistService&#45;&gt;TasksModule -->
<g id="edge26" class="edge">
<title>ContentAssistService&#45;&gt;TasksModule</title>
<path fill="none" stroke="#000000" d="M118,-122.3802C118,-146.2785 118,-185 118,-185 118,-185 1968.8053,-185 1968.8053,-185"/>
<polygon fill="#000000" stroke="#000000" points="1968.8053,-188.5001 1978.8053,-185 1968.8053,-181.5001 1968.8053,-188.5001"/>
</g>
</g>
</svg>
